<?xml version="1.0" encoding="UTF-8"?> <svg xmlns="http://www.w3.org/2000/svg" xmlns:xlink="http://www.w3.org/1999/xlink" id="Layer_1" data-name="Layer 1" viewBox="0 0 445.5 355.74"><defs><style>.cls-1{mask:url(#mask);filter:url(#luminosity-noclip-13);}.cls-10,.cls-12,.cls-14,.cls-16,.cls-18,.cls-2,.cls-20,.cls-22,.cls-24,.cls-4,.cls-6,.cls-8{mix-blend-mode:multiply;}.cls-2{fill:url(#linear-gradient);}.cls-3{mask:url(#mask-2);filter:url(#luminosity-noclip-18);}.cls-4{fill:url(#linear-gradient-2);}.cls-5{mask:url(#mask-3);filter:url(#luminosity-noclip-19);}.cls-6{fill:url(#linear-gradient-3);}.cls-7{mask:url(#mask-4);filter:url(#luminosity-noclip-20);}.cls-8{fill:url(#linear-gradient-4);}.cls-9{mask:url(#mask-5);filter:url(#luminosity-noclip-21);}.cls-10{fill:url(#linear-gradient-5);}.cls-11{mask:url(#mask-6);filter:url(#luminosity-noclip-22);}.cls-12{fill:url(#linear-gradient-6);}.cls-13{mask:url(#mask-7);filter:url(#luminosity-noclip-14);}.cls-14{fill:url(#linear-gradient-7);}.cls-15{mask:url(#mask-8);filter:url(#luminosity-noclip-23);}.cls-16{fill:url(#linear-gradient-8);}.cls-17{mask:url(#mask-9);filter:url(#luminosity-noclip-24);}.cls-18{fill:url(#linear-gradient-9);}.cls-19{mask:url(#mask-10);filter:url(#luminosity-noclip-15);}.cls-20{fill:url(#linear-gradient-10);}.cls-21{mask:url(#mask-11);filter:url(#luminosity-noclip-16);}.cls-22{fill:url(#linear-gradient-11);}.cls-23{mask:url(#mask-12);filter:url(#luminosity-noclip-17);}.cls-24{fill:url(#linear-gradient-12);}.cls-25{opacity:0.3;fill:url(#linear-gradient-13);}.cls-26{fill:#f0f2f5;}.cls-27{fill:url(#linear-gradient-14);}.cls-28{fill:url(#linear-gradient-15);}.cls-29{fill:url(#linear-gradient-16);}.cls-30{fill:#a05708;}.cls-31{fill:#f2dad4;}.cls-32{fill:url(#linear-gradient-17);}.cls-33{fill:#1c2b6b;}.cls-34{fill:url(#linear-gradient-18);}.cls-35{fill:url(#linear-gradient-19);}.cls-36{fill:#c6b3af;}.cls-37{fill:#ffac00;}.cls-38{fill:#4ee2ff;}.cls-39{fill:#1c80ff;}.cls-40{fill:#6ceeff;}.cls-41{fill:#d3d6db;}.cls-42{fill:#fff;}.cls-43{fill:#40cd8a;}.cls-44{mask:url(#mask-13);}.cls-45{fill:url(#linear-gradient-20);}.cls-46{mask:url(#mask-14);}.cls-47{fill:url(#linear-gradient-21);}.cls-48{mask:url(#mask-15);}.cls-49{fill:url(#linear-gradient-22);}.cls-50{mask:url(#mask-16);}.cls-51{fill:url(#linear-gradient-23);}.cls-52{mask:url(#mask-17);}.cls-53{fill:url(#linear-gradient-24);}.cls-54{mask:url(#mask-18);}.cls-55{fill:url(#linear-gradient-25);}.cls-56{mask:url(#mask-19);}.cls-57{fill:url(#linear-gradient-26);}.cls-58{mask:url(#mask-20);}.cls-59{fill:url(#linear-gradient-27);}.cls-60{mask:url(#mask-21);}.cls-61{fill:url(#linear-gradient-28);}.cls-62{mask:url(#mask-22);}.cls-63{fill:url(#linear-gradient-29);}.cls-64{mask:url(#mask-23);}.cls-65{fill:url(#linear-gradient-30);}.cls-66{mask:url(#mask-24);}.cls-67{fill:url(#linear-gradient-31);}.cls-68{fill:url(#linear-gradient-32);}.cls-69{fill:#1e3286;}.cls-70{filter:url(#luminosity-noclip-12);}.cls-71{filter:url(#luminosity-noclip-11);}.cls-72{filter:url(#luminosity-noclip-10);}.cls-73{filter:url(#luminosity-noclip-9);}.cls-74{filter:url(#luminosity-noclip-8);}.cls-75{filter:url(#luminosity-noclip-7);}.cls-76{filter:url(#luminosity-noclip-6);}.cls-77{filter:url(#luminosity-noclip-5);}.cls-78{filter:url(#luminosity-noclip-4);}.cls-79{filter:url(#luminosity-noclip-3);}.cls-80{filter:url(#luminosity-noclip-2);}.cls-81{filter:url(#luminosity-noclip);}</style><filter id="luminosity-noclip" x="346.86" y="-10836.91" width="1.5" height="32766" color-interpolation-filters="sRGB"><feFlood flood-color="#fff" result="bg"></feFlood><feBlend in="SourceGraphic" in2="bg"></feBlend></filter><mask id="mask" x="346.86" y="-10836.91" width="1.5" height="32766" maskUnits="userSpaceOnUse"><g class="cls-81"></g></mask><linearGradient id="linear-gradient" x1="-967.45" y1="127.56" x2="-967.45" y2="27.49" gradientTransform="translate(1315.07 13.04)" gradientUnits="userSpaceOnUse"><stop offset="0"></stop><stop offset="1" stop-color="#fff"></stop></linearGradient><filter id="luminosity-noclip-2" x="374.52" y="-10836.91" width="2.97" height="32766" color-interpolation-filters="sRGB"><feFlood flood-color="#fff" result="bg"></feFlood><feBlend in="SourceGraphic" in2="bg"></feBlend></filter><mask id="mask-2" x="374.52" y="-10836.91" width="2.97" height="32766" maskUnits="userSpaceOnUse"><g class="cls-80"></g></mask><linearGradient id="linear-gradient-2" x1="3667.26" y1="4968.97" x2="3705.56" y2="4968.97" gradientTransform="translate(4050.34 5069.64) rotate(180)" xlink:href="#linear-gradient"></linearGradient><filter id="luminosity-noclip-3" x="51.9" y="-10836.91" width="1.5" height="32766" color-interpolation-filters="sRGB"><feFlood flood-color="#fff" result="bg"></feFlood><feBlend in="SourceGraphic" in2="bg"></feBlend></filter><mask id="mask-3" x="51.9" y="-10836.91" width="1.5" height="32766" maskUnits="userSpaceOnUse"><g class="cls-79"></g></mask><linearGradient id="linear-gradient-3" x1="58.04" y1="209.64" x2="58.04" y2="109.57" gradientTransform="translate(-5.39 1.33)" xlink:href="#linear-gradient"></linearGradient><filter id="luminosity-noclip-4" x="51.97" y="-10836.91" width="2.39" height="32766" color-interpolation-filters="sRGB"><feFlood flood-color="#fff" result="bg"></feFlood><feBlend in="SourceGraphic" in2="bg"></feBlend></filter><mask id="mask-4" x="51.97" y="-10836.91" width="2.39" height="32766" maskUnits="userSpaceOnUse"><g class="cls-78"></g></mask><linearGradient id="linear-gradient-4" x1="58.04" y1="209.64" x2="58.04" y2="109.57" gradientTransform="translate(-5.94 1.78) rotate(-0.44)" xlink:href="#linear-gradient"></linearGradient><filter id="luminosity-noclip-5" x="52.93" y="-10836.91" width="1.5" height="32766" color-interpolation-filters="sRGB"><feFlood flood-color="#fff" result="bg"></feFlood><feBlend in="SourceGraphic" in2="bg"></feBlend></filter><mask id="mask-5" x="52.93" y="-10836.91" width="1.5" height="32766" maskUnits="userSpaceOnUse"><g class="cls-77"></g></mask><linearGradient id="linear-gradient-5" x1="58.04" y1="209.64" x2="58.04" y2="109.57" gradientTransform="translate(-4.37 1.32)" xlink:href="#linear-gradient"></linearGradient><filter id="luminosity-noclip-6" x="170.14" y="-10836.91" width="2.97" height="32766" color-interpolation-filters="sRGB"><feFlood flood-color="#fff" result="bg"></feFlood><feBlend in="SourceGraphic" in2="bg"></feBlend></filter><mask id="mask-6" x="170.14" y="-10836.91" width="2.97" height="32766" maskUnits="userSpaceOnUse"><g class="cls-76"></g></mask><linearGradient id="linear-gradient-6" x1="23.35" y1="82.12" x2="61.65" y2="82.12" gradientTransform="translate(-5.31 0.4)" xlink:href="#linear-gradient"></linearGradient><filter id="luminosity-noclip-7" x="346.93" y="-10836.91" width="2.39" height="32766" color-interpolation-filters="sRGB"><feFlood flood-color="#fff" result="bg"></feFlood><feBlend in="SourceGraphic" in2="bg"></feBlend></filter><mask id="mask-7" x="346.93" y="-10836.91" width="2.39" height="32766" maskUnits="userSpaceOnUse"><g class="cls-75"></g></mask><linearGradient id="linear-gradient-7" x1="-967.45" y1="127.56" x2="-967.45" y2="27.49" gradientTransform="translate(1315.13 5.54) rotate(-0.44)" xlink:href="#linear-gradient"></linearGradient><filter id="luminosity-noclip-8" x="32.33" y="-10836.91" width="132.08" height="32766" color-interpolation-filters="sRGB"><feFlood flood-color="#fff" result="bg"></feFlood><feBlend in="SourceGraphic" in2="bg"></feBlend></filter><mask id="mask-8" x="32.33" y="-10836.91" width="132.08" height="32766" maskUnits="userSpaceOnUse"><g class="cls-74"></g></mask><linearGradient id="linear-gradient-8" x1="23.35" y1="82.12" x2="61.65" y2="82.12" gradientTransform="translate(-5.94 1.78) rotate(-0.44)" xlink:href="#linear-gradient"></linearGradient><filter id="luminosity-noclip-9" x="23.63" y="-10836.91" width="2.97" height="32766" color-interpolation-filters="sRGB"><feFlood flood-color="#fff" result="bg"></feFlood><feBlend in="SourceGraphic" in2="bg"></feBlend></filter><mask id="mask-9" x="23.63" y="-10836.91" width="2.97" height="32766" maskUnits="userSpaceOnUse"><g class="cls-73"></g></mask><linearGradient id="linear-gradient-9" x1="23.35" y1="82.12" x2="61.65" y2="82.12" gradientTransform="translate(-5.3 1.54)" xlink:href="#linear-gradient"></linearGradient><filter id="luminosity-noclip-10" x="347.89" y="-10836.91" width="1.5" height="32766" color-interpolation-filters="sRGB"><feFlood flood-color="#fff" result="bg"></feFlood><feBlend in="SourceGraphic" in2="bg"></feBlend></filter><mask id="mask-10" x="347.89" y="-10836.91" width="1.5" height="32766" maskUnits="userSpaceOnUse"><g class="cls-72"></g></mask><linearGradient id="linear-gradient-10" x1="-967.45" y1="127.56" x2="-967.45" y2="27.49" gradientTransform="translate(1316.1 13.03)" xlink:href="#linear-gradient"></linearGradient><filter id="luminosity-noclip-11" x="228.01" y="-10836.91" width="2.97" height="32766" color-interpolation-filters="sRGB"><feFlood flood-color="#fff" result="bg"></feFlood><feBlend in="SourceGraphic" in2="bg"></feBlend></filter><mask id="mask-11" x="228.01" y="-10836.91" width="2.97" height="32766" maskUnits="userSpaceOnUse"><g class="cls-71"></g></mask><linearGradient id="linear-gradient-11" x1="3667.26" y1="4968.97" x2="3705.56" y2="4968.97" gradientTransform="translate(4050.34 5070.78) rotate(180)" xlink:href="#linear-gradient"></linearGradient><filter id="luminosity-noclip-12" x="236.71" y="-10836.91" width="132.08" height="32766" color-interpolation-filters="sRGB"><feFlood flood-color="#fff" result="bg"></feFlood><feBlend in="SourceGraphic" in2="bg"></feBlend></filter><mask id="mask-12" x="236.71" y="-10836.91" width="132.08" height="32766" maskUnits="userSpaceOnUse"><g class="cls-70"></g></mask><linearGradient id="linear-gradient-12" x1="3667.26" y1="4968.97" x2="3705.56" y2="4968.97" gradientTransform="translate(4088.74 5041.02) rotate(179.56)" xlink:href="#linear-gradient"></linearGradient><linearGradient id="linear-gradient-13" x1="415.78" y1="330.38" x2="97.14" y2="330.38" gradientTransform="matrix(0.87, -0.01, 0.01, 1, 2.99, 1.71)" gradientUnits="userSpaceOnUse"><stop offset="0" stop-color="#d3d6db"></stop><stop offset="1" stop-color="#7a869b"></stop></linearGradient><linearGradient id="linear-gradient-14" x1="142.5" y1="208.82" x2="170.34" y2="245.7" gradientTransform="translate(-5.94 1.78) rotate(-0.44)" xlink:href="#linear-gradient-13"></linearGradient><linearGradient id="linear-gradient-15" x1="3.69" y1="307.81" x2="65.95" y2="307.81" gradientTransform="translate(-5.94 1.78) rotate(-0.44)" gradientUnits="userSpaceOnUse"><stop offset="0" stop-color="#ffac00"></stop><stop offset="1" stop-color="#ff5e00"></stop></linearGradient><linearGradient id="linear-gradient-16" x1="50.51" y1="301.98" x2="32.33" y2="314.45" gradientTransform="translate(-5.94 1.78) rotate(-0.44)" xlink:href="#linear-gradient-13"></linearGradient><linearGradient id="linear-gradient-17" x1="57.8" y1="284.54" x2="314.34" y2="284.54" gradientTransform="translate(-5.94 1.78) rotate(-0.44)" xlink:href="#linear-gradient-13"></linearGradient><linearGradient id="linear-gradient-18" x1="234.77" y1="231.63" x2="330.3" y2="274.52" xlink:href="#linear-gradient-15"></linearGradient><linearGradient id="linear-gradient-19" x1="167.95" y1="241.94" x2="209.59" y2="252.32" gradientTransform="translate(-5.94 1.78) rotate(-0.44)" gradientUnits="userSpaceOnUse"><stop offset="0" stop-color="#4ee2ff"></stop><stop offset="1" stop-color="#1c80ff"></stop></linearGradient><filter id="luminosity-noclip-13" x="346.86" y="0" width="1.5" height="2.97" color-interpolation-filters="sRGB"><feFlood flood-color="#fff" result="bg"></feFlood><feBlend in="SourceGraphic" in2="bg"></feBlend></filter><mask id="mask-13" x="346.86" y="0" width="1.5" height="2.97" maskUnits="userSpaceOnUse"><g class="cls-1"><rect class="cls-2" x="346.87" y="0.01" width="1.48" height="2.96" transform="translate(0 2.69) rotate(-0.44)"></rect></g></mask><linearGradient id="linear-gradient-20" x1="-967.45" y1="127.56" x2="-967.45" y2="27.49" gradientTransform="translate(1315.07 13.04)" gradientUnits="userSpaceOnUse"><stop offset="0" stop-color="#4e9cff"></stop><stop offset="1" stop-color="#176ad4"></stop></linearGradient><filter id="luminosity-noclip-14" x="346.93" y="9.14" width="2.39" height="117.4" color-interpolation-filters="sRGB"><feFlood flood-color="#fff" result="bg"></feFlood><feBlend in="SourceGraphic" in2="bg"></feBlend></filter><mask id="mask-14" x="346.93" y="9.14" width="2.39" height="117.4" maskUnits="userSpaceOnUse"><g class="cls-13"><path class="cls-14" d="M349.32,126.52h-1.48l0-6.17,1.48,0Zm-.09-12.35h-1.48L347.7,108h1.48Zm-.1-12.36h-1.48l0-6.18h1.48ZM349,89.45h-1.48l-.05-6.17H349Zm-.1-12.35h-1.48l0-6.18h1.48Zm-.1-12.36h-1.48l0-6.18h1.48Zm-.09-12.36-1.48,0,0-6.18h1.48ZM348.65,40h-1.48l0-6.18h1.48Zm-.09-12.36h-1.48L347,21.51l1.48,0Zm-.1-12.35H347l-.05-6.18h1.48Z"></path></g></mask><linearGradient id="linear-gradient-21" x1="353.55" y1="141.56" x2="353.55" y2="41.49" gradientTransform="translate(-5.94 1.78) rotate(-0.44)" xlink:href="#linear-gradient-20"></linearGradient><filter id="luminosity-noclip-15" x="347.89" y="132.7" width="1.5" height="2.97" color-interpolation-filters="sRGB"><feFlood flood-color="#fff" result="bg"></feFlood><feBlend in="SourceGraphic" in2="bg"></feBlend></filter><mask id="mask-15" x="347.89" y="132.7" width="1.5" height="2.97" maskUnits="userSpaceOnUse"><g class="cls-19"><rect class="cls-20" x="347.9" y="132.71" width="1.48" height="2.96" transform="translate(-1.03 2.71) rotate(-0.44)"></rect></g></mask><linearGradient id="linear-gradient-22" x1="-967.45" y1="127.56" x2="-967.45" y2="27.49" gradientTransform="translate(1316.1 13.03)" xlink:href="#linear-gradient-20"></linearGradient><filter id="luminosity-noclip-16" x="228.01" y="101.06" width="2.97" height="1.5" color-interpolation-filters="sRGB"><feFlood flood-color="#fff" result="bg"></feFlood><feBlend in="SourceGraphic" in2="bg"></feBlend></filter><mask id="mask-16" x="228.01" y="101.06" width="2.97" height="1.5" maskUnits="userSpaceOnUse"><g class="cls-21"><rect class="cls-22" x="228.02" y="101.07" width="2.96" height="1.48" transform="translate(-0.78 1.78) rotate(-0.44)"></rect></g></mask><linearGradient id="linear-gradient-23" x1="3667.26" y1="4968.97" x2="3705.56" y2="4968.97" gradientTransform="translate(4050.34 5070.78) rotate(180)" xlink:href="#linear-gradient-20"></linearGradient><filter id="luminosity-noclip-17" x="236.71" y="99.99" width="132.08" height="2.5" color-interpolation-filters="sRGB"><feFlood flood-color="#fff" result="bg"></feFlood><feBlend in="SourceGraphic" in2="bg"></feBlend></filter><mask id="mask-17" x="236.71" y="99.99" width="132.08" height="2.5" maskUnits="userSpaceOnUse"><g class="cls-23"><path class="cls-24" d="M236.71,101l5.75,0v1.48l-5.74,0Zm11.49-.09,5.74,0v1.48l-5.74,0Zm11.48-.09,5.74,0,0,1.48-5.75,0Zm11.49-.08,5.74,0v1.48l-5.74,0Zm11.48-.09,5.74,0v1.48l-5.74,0Zm11.48-.09,5.75,0V102l-5.74,0Zm11.49-.09,5.74,0v1.48l-5.74,0Zm11.48-.09,5.75,0v1.48l-5.75,0Zm11.49-.09,5.74,0v1.48l-5.74,0Zm11.48-.09,5.74,0,0,1.48-5.75,0Zm11.49-.09,5.74,0v1.48l-5.74,0ZM363,100l5.74,0v1.48l-5.74,0Z"></path></g></mask><linearGradient id="linear-gradient-24" x1="227.58" y1="101.85" x2="265.88" y2="101.85" gradientTransform="translate(-5.94 1.78) rotate(-0.44)" xlink:href="#linear-gradient-20"></linearGradient><filter id="luminosity-noclip-18" x="374.52" y="99.92" width="2.97" height="1.5" color-interpolation-filters="sRGB"><feFlood flood-color="#fff" result="bg"></feFlood><feBlend in="SourceGraphic" in2="bg"></feBlend></filter><mask id="mask-18" x="374.52" y="99.92" width="2.97" height="1.5" maskUnits="userSpaceOnUse"><g class="cls-3"><rect class="cls-4" x="374.53" y="99.93" width="2.96" height="1.48" transform="translate(-0.77 2.92) rotate(-0.44)"></rect></g></mask><linearGradient id="linear-gradient-25" x1="3667.26" y1="4968.97" x2="3705.56" y2="4968.97" gradientTransform="translate(4050.34 5069.64) rotate(180)" xlink:href="#linear-gradient-20"></linearGradient><filter id="luminosity-noclip-19" x="51.9" y="70.37" width="1.5" height="2.97" color-interpolation-filters="sRGB"><feFlood flood-color="#fff" result="bg"></feFlood><feBlend in="SourceGraphic" in2="bg"></feBlend></filter><mask id="mask-19" x="51.9" y="70.37" width="1.5" height="2.97" maskUnits="userSpaceOnUse"><g class="cls-5"><rect class="cls-6" x="51.91" y="70.37" width="1.48" height="2.96" transform="translate(-0.56 0.41) rotate(-0.44)"></rect></g></mask><linearGradient id="linear-gradient-26" x1="58.04" y1="209.64" x2="58.04" y2="109.57" gradientTransform="translate(-5.39 1.33)" xlink:href="#linear-gradient-20"></linearGradient><filter id="luminosity-noclip-20" x="51.97" y="79.5" width="2.39" height="117.4" color-interpolation-filters="sRGB"><feFlood flood-color="#fff" result="bg"></feFlood><feBlend in="SourceGraphic" in2="bg"></feBlend></filter><mask id="mask-20" x="51.97" y="79.5" width="2.39" height="117.4" maskUnits="userSpaceOnUse"><g class="cls-7"><path class="cls-8" d="M54.36,196.89H52.88l-.05-6.18h1.48Zm-.1-12.36H52.78l0-6.17,1.48,0Zm-.09-12.35H52.69l0-6.18h1.48Zm-.1-12.36H52.59l-.05-6.18H54ZM54,147.46l-1.48,0,0-6.18h1.48Zm-.1-12.35H52.4l0-6.18h1.48Zm-.1-12.36H52.3l0-6.18h1.48Zm-.09-12.35H52.21l-.05-6.18h1.48ZM53.59,98H52.11l0-6.18h1.48ZM53.5,85.68H52L52,79.52l1.48,0Z"></path></g></mask><linearGradient id="linear-gradient-27" x1="58.04" y1="209.64" x2="58.04" y2="109.57" gradientTransform="translate(-5.94 1.78) rotate(-0.44)" xlink:href="#linear-gradient-20"></linearGradient><filter id="luminosity-noclip-21" x="52.93" y="203.07" width="1.5" height="2.97" color-interpolation-filters="sRGB"><feFlood flood-color="#fff" result="bg"></feFlood><feBlend in="SourceGraphic" in2="bg"></feBlend></filter><mask id="mask-21" x="52.93" y="203.07" width="1.5" height="2.97" maskUnits="userSpaceOnUse"><g class="cls-9"><rect class="cls-10" x="52.94" y="203.07" width="1.48" height="2.96" transform="translate(-1.58 0.42) rotate(-0.44)"></rect></g></mask><linearGradient id="linear-gradient-28" x1="58.04" y1="209.64" x2="58.04" y2="109.57" gradientTransform="translate(-4.37 1.32)" xlink:href="#linear-gradient-20"></linearGradient><filter id="luminosity-noclip-22" x="170.14" y="81.77" width="2.97" height="1.5" color-interpolation-filters="sRGB"><feFlood flood-color="#fff" result="bg"></feFlood><feBlend in="SourceGraphic" in2="bg"></feBlend></filter><mask id="mask-22" x="170.14" y="81.77" width="2.97" height="1.5" maskUnits="userSpaceOnUse"><g class="cls-11"><rect class="cls-12" x="170.15" y="81.78" width="2.96" height="1.48" transform="translate(-0.63 1.33) rotate(-0.44)"></rect></g></mask><linearGradient id="linear-gradient-29" x1="23.35" y1="82.12" x2="61.65" y2="82.12" gradientTransform="translate(-5.31 0.4)" xlink:href="#linear-gradient-20"></linearGradient><filter id="luminosity-noclip-23" x="32.33" y="81.84" width="132.08" height="2.5" color-interpolation-filters="sRGB"><feFlood flood-color="#fff" result="bg"></feFlood><feBlend in="SourceGraphic" in2="bg"></feBlend></filter><mask id="mask-23" x="32.33" y="81.84" width="132.08" height="2.5" maskUnits="userSpaceOnUse"><g class="cls-15"><path class="cls-16" d="M164.41,83.32l-5.74,0V81.88l5.74,0Zm-11.48.09-5.75,0V82l5.75,0Zm-11.49.09-5.74,0V82.06l5.74,0ZM130,83.59l-5.74,0,0-1.48,5.75,0Zm-11.49.09-5.74,0V82.24l5.74,0ZM107,83.76l-5.74,0V82.33l5.74,0Zm-11.48.09-5.75.05V82.42l5.74,0ZM84,83.94l-5.74,0V82.51L84,82.46ZM72.54,84l-5.74,0,0-1.48,5.75,0Zm-11.49.09-5.74,0V82.69l5.74,0Zm-11.48.09-5.74,0V82.77l5.74,0Zm-11.49.09-5.74,0V82.86l5.74,0Z"></path></g></mask><linearGradient id="linear-gradient-30" x1="23.35" y1="82.12" x2="61.65" y2="82.12" gradientTransform="translate(-5.94 1.78) rotate(-0.44)" xlink:href="#linear-gradient-20"></linearGradient><filter id="luminosity-noclip-24" x="23.63" y="82.91" width="2.97" height="1.5" color-interpolation-filters="sRGB"><feFlood flood-color="#fff" result="bg"></feFlood><feBlend in="SourceGraphic" in2="bg"></feBlend></filter><mask id="mask-24" x="23.63" y="82.91" width="2.97" height="1.5" maskUnits="userSpaceOnUse"><g class="cls-17"><rect class="cls-18" x="23.63" y="82.92" width="2.96" height="1.48" transform="translate(-0.65 0.2) rotate(-0.44)"></rect></g></mask><linearGradient id="linear-gradient-31" x1="23.35" y1="82.12" x2="61.65" y2="82.12" gradientTransform="translate(-5.3 1.54)" xlink:href="#linear-gradient-20"></linearGradient><linearGradient id="linear-gradient-32" x1="364.93" y1="329.57" x2="277.44" y2="329.42" gradientTransform="translate(-5.94 1.78) rotate(-0.44)" xlink:href="#linear-gradient-13"></linearGradient></defs><title>How to hire a Java developer V3</title><path class="cls-25" d="M60,328.44c-6,1-15.63,2.8-15.67,5.29,0,2.26,7.78,4,10.51,4.67,31.29,7.14,68.64-6.75,110-1.72,21.7,2.64,18.46,7.31,37.69,8.34,26.31,1.39,35.64-7.19,68.52-7,14,.07,14.26,1.65,33.36,2.76,7.5.43,60,3.41,60.94-1.77.16-.94-1.13-3.54-23.89-9.74C341.44,329.27,232.78,299.67,60,328.44Z"></path><path class="cls-26" d="M359.53,142.62a54.26,54.26,0,0,0-27.31,6.13c-13.87,7.25-24.62,20.18-30.68,35-10.74,26.18-7.11,56.3-14.33,83.74A106,106,0,0,1,244.53,328C281.81,336.18,319.85,341.13,358,341c25-.09,49.3-3.93,67.1-23.48,17.32-19,23.5-45.25,19-70.83-4.75-27.17-19.69-51.28-36.5-72.74-8.49-10.84-17.94-21.53-30.3-27.15A47.79,47.79,0,0,0,359.53,142.62Z"></path><path class="cls-27" d="M124.32,245.93s18.47-13,30.85-6.68,66.58,25.09,68.43,27.07-9.43,10.46-9.43,10.46l-73.66-19.16Z"></path><path class="cls-28" d="M42.45,293.7s-2.83-4.71-6.28-4.19S32.74,292,30.76,292s-10.36.08-13.32-.89S7,286.77,3.59,286.8s-4.41,4.48-2.9,8.41,6,12.78,14,17.16S36.46,327,38.45,328.46s6.93,3.9,11.37,3.37,4.91-2.51,4.9-3.49a5.64,5.64,0,0,1,1.46-3c.49-.5,2.93-4,3.4-6.44a5.08,5.08,0,0,1,2-3.47,2.11,2.11,0,0,0,.47-3c-1-1.48-1.61-.46-2.29-1s-10.63-11.77-10.63-11.77Z"></path><path class="cls-29" d="M46.18,294.55a26.18,26.18,0,0,0-7-1.12c-3.45,0-6.41,1-6.87,5s4,11.81,9.49,14.73S49.7,317,52.66,316s6.39-3,6.37-5.48S46.18,294.55,46.18,294.55Z"></path><path class="cls-30" d="M35,294.23a9.55,9.55,0,0,1,4.15-.8c.5,0,1,0,1.49.06l.41-.07s-1.92-2.95-3.9-2.93-2.46.51-2.45,1a10.58,10.58,0,0,0,.3,2.74Z"></path><path class="cls-31" d="M53.46,292.83s-3.44,1.5-4.92,1.52-3.45,0-3.93,1.51-1.4,10.37,2.07,13.3,6.94,3.89,9.4,3.38S64.93,309,64.93,309Z"></path><path class="cls-32" d="M52.46,291.36c-.25,2.5,6.86,18.24,13,19.63,8.4,1.91,29.05-8.12,35.43-12.12,6.22-3.89,39.34-16.58,40.32-17.08s2-2,2.46-1,0,5.92,3.52,8.85,26.78,17.56,29.76,20.49,16.39,13.69,20.85,16.12,26.18,5.23,38.5,3.65,20.62-13,20.62-13l-25.5-44.2s-8.69-6.9-12-8.32-8.26.59-8.74,2.07-1.45,3.46-3.43,2-45.59-25.3-59.43-28.65-32,12.09-35.9,14.59S68.2,285.31,65.25,285.83,52.92,286.91,52.46,291.36Z"></path><path class="cls-31" d="M206.76,149.06s1.07,10.36,2.06,11.34,2.47.47,2.5,3.92.58,11.35,1.57,11.83,4.43-1.51,4.92-1.52,5.46,3.91,6.46,5.87,4.5,7.37,7.46,7.84,6.87-5.48,8.85-4a8.52,8.52,0,0,1,3,5.9c0,1.48,23.64-5.61,23.57-14.49,0-2.51-6.54-15.74-8-18.68s-3.58-15.76-4.1-19.21-6.51-13.27-16.41-16.65S205.69,137.73,206.76,149.06Z"></path><path class="cls-33" d="M236.61,117.75c6.53,1.58,16.38,11.72,17.89,16.64s5.3,17.68,5.09,20.19c-.45,5.43-9.76,12.9-11.26,10.44s-6.2-10.78-6.52-13.76c-.53-4.93-3-9.84-6.49-9.82-1,0-3.91,4.47-4.39,6.94-.56,3,2.54,8.86,4.52,10.33s7.11,4.33,8,7.34c1.52,5.41-1.35,16.78-2.82,18.27s-6.05,4.69-8.85,4c-3.95-1-6.46-6.86-8.88-9.65-1-1.17-3-2.1-4.08-3.5s10.59-7,10.32-10c-1.08-11.83-4.63-26-12-25.06-8.37,1-9.3,8.95-14.72,10-3,.56-15.27,2.58-17.86-12.69-.82-4.87,12.34.4,23.63-7.09C211.06,128.34,222.77,114.41,236.61,117.75Z"></path><path class="cls-34" d="M241.15,193.69c0-2.51,3.9-5.45,6.35-7.94s19.13-14,19.61-15.94,16.82,5.3,22.85,20.05,13.31,62.06-3.71,93.76-30.77,40.2-31.29,37.25,0-5.43-5.49-8.35-15.9-15.17-18.41-19.59-14-25.54-13-28,10.57-36.09,15.43-46,9.24-16.84,9.22-19.8S241.16,195.67,241.15,193.69Z"></path><polygon class="cls-35" points="162.13 246.6 169.47 239.14 219.89 251.58 228.85 261.87 162.13 246.6"></polygon><path class="cls-36" d="M188.19,234.56s-4.9,4.47-5.86,8.43l3.45-1,6.39-3,4.42-2.51-2-2Z"></path><path class="cls-31" d="M215,233.27s-5.11-.36-7.58-1.33A13,13,0,0,0,200,231c-2.46.51-7.42-1.91-9.88-1.4s-10.85.08-11.34.58a2.9,2.9,0,0,0-1,2.47c0,1.48,2,2,2.48,2s9.87.41,12.35,1.38c0,0-4.44.53-6.89,3s-6.36,6-6.36,6.46,0,2.46.51,2.46h1s.5,1,1,1a16.32,16.32,0,0,1,3-1.5c.5,0-1.47,1-1,2a2.71,2.71,0,0,0,2.48,1.46c1,0,6.88-3,8.86-2.53s5.43.94,6.92,1.92,6.43,1.92,7.41,1.42S215,233.27,215,233.27Z"></path><path class="cls-37" d="M268.72,187.07c-10,1.32-12.68,18.84-11.64,25.74,0,0,9.64,34,6.19,34s-24.73-8.19-28.19-9.15-15.35-6.3-17.32-6.28-6.37,6-7.82,9.92-3.35,13.35-.88,13.33,11.84-.09,13.83,1.37,15.38,12.22,22.81,15.12,34.11,10.1,38.54,8.58,10.29-9,10.27-11.92-.8-39.46-3.83-48.81S288.44,184.45,268.72,187.07Z"></path><path class="cls-38" d="M164.11,246.58l-38-58.41,10.32-.08a1,1,0,0,1,.83.44l33.22,50a1,1,0,0,1-.1,1.21Z"></path><path class="cls-39" d="M162.16,246.58l-36.9-56.74a1.08,1.08,0,0,1,.9-1.67h0l38,58.41h0A1.17,1.17,0,0,1,162.16,246.58Z"></path><polygon class="cls-40" points="143.78 215.3 146.22 219.05 142.59 196.48 140.18 192.85 143.78 215.3"></polygon><polygon class="cls-40" points="147.92 221.66 151.84 227.69 148.17 204.87 144.28 199.02 147.92 221.66"></polygon><path class="cls-39" d="M227.32,264.24,163,250.19a1,1,0,0,1-.82-1l0-2.63,66.15,14.91a1,1,0,0,1,.54,1.59l-.57.8A1,1,0,0,1,227.32,264.24Z"></path><rect class="cls-26" x="64.98" y="95.51" width="100.14" height="78.44" rx="8" transform="translate(-1.04 0.9) rotate(-0.44)"></rect><rect class="cls-41" x="71.64" y="101.16" width="30.09" height="4.44" transform="translate(-0.8 0.67) rotate(-0.44)"></rect><rect class="cls-42" x="71.87" y="110.8" width="87.81" height="44.4" rx="6" transform="translate(-1.03 0.9) rotate(-0.44)"></rect><rect class="cls-41" x="76.76" y="125.86" width="11.04" height="1.97" transform="translate(-0.98 0.64) rotate(-0.44)"></rect><rect class="cls-41" x="76.81" y="132.27" width="11.04" height="1.97" transform="translate(-1.03 0.64) rotate(-0.44)"></rect><rect class="cls-41" x="76.86" y="138.69" width="11.03" height="1.97" transform="translate(-1.08 0.64) rotate(-0.44)"></rect><rect class="cls-41" x="137.56" y="134.25" width="15.79" height="15.79" rx="7.89" transform="translate(-1.1 1.13) rotate(-0.44)"></rect><rect class="cls-43" x="76.68" y="113.97" width="24.67" height="6.41" rx="3.21" transform="translate(-0.91 0.69) rotate(-0.44)"></rect><rect class="cls-41" x="90.83" y="125.73" width="44.4" height="1.97" transform="translate(-0.98 0.88) rotate(-0.44)"></rect><rect class="cls-41" x="90.88" y="132.14" width="44.4" height="1.97" transform="translate(-1.03 0.88) rotate(-0.44)"></rect><rect class="cls-41" x="90.93" y="138.61" width="29.6" height="1.97" transform="translate(-1.08 0.82) rotate(-0.44)"></rect><rect class="cls-26" x="231.54" y="7.89" width="100.14" height="78.44" rx="8" transform="translate(-0.36 2.18) rotate(-0.44)"></rect><rect class="cls-41" x="238.2" y="13.53" width="30.09" height="4.44" transform="translate(-0.11 1.96) rotate(-0.44)"></rect><rect class="cls-42" x="238.43" y="23.18" width="87.81" height="44.4" rx="6" transform="translate(-0.34 2.19) rotate(-0.44)"></rect><rect class="cls-41" x="243.32" y="38.24" width="10.21" height="1.97" transform="translate(-0.3 1.93) rotate(-0.44)"></rect><rect class="cls-41" x="243.37" y="44.65" width="10.21" height="1.97" transform="translate(-0.35 1.93) rotate(-0.44)"></rect><rect class="cls-41" x="243.42" y="51.06" width="10.15" height="1.97" transform="translate(-0.4 1.93) rotate(-0.44)"></rect><rect class="cls-37" x="243.24" y="26.34" width="24.67" height="6.41" rx="3.21" transform="translate(-0.22 1.98) rotate(-0.44)"></rect><rect class="cls-39" x="270.38" y="26.13" width="24.67" height="6.41" rx="3.21" transform="translate(-0.22 2.19) rotate(-0.44)"></rect><rect class="cls-41" x="257.39" y="38.11" width="44.4" height="1.97" transform="translate(-0.29 2.17) rotate(-0.44)"></rect><rect class="cls-41" x="257.44" y="44.52" width="44.4" height="1.97" transform="translate(-0.34 2.17) rotate(-0.44)"></rect><rect class="cls-41" x="257.49" y="50.99" width="29.6" height="1.97" transform="translate(-0.39 2.11) rotate(-0.44)"></rect><g class="cls-44"><rect class="cls-45" x="346.87" y="0.01" width="1.48" height="2.96" transform="translate(0 2.69) rotate(-0.44)"></rect></g><g class="cls-46"><path class="cls-47" d="M349.32,126.52h-1.48l0-6.17,1.48,0Zm-.09-12.35h-1.48L347.7,108h1.48Zm-.1-12.36h-1.48l0-6.18h1.48ZM349,89.45h-1.48l-.05-6.17H349Zm-.1-12.35h-1.48l0-6.18h1.48Zm-.1-12.36h-1.48l0-6.18h1.48Zm-.09-12.36-1.48,0,0-6.18h1.48ZM348.65,40h-1.48l0-6.18h1.48Zm-.09-12.36h-1.48L347,21.51l1.48,0Zm-.1-12.35H347l-.05-6.18h1.48Z"></path></g><g class="cls-48"><rect class="cls-49" x="347.9" y="132.71" width="1.48" height="2.96" transform="translate(-1.03 2.71) rotate(-0.44)"></rect></g><g class="cls-50"><rect class="cls-51" x="228.02" y="101.07" width="2.96" height="1.48" transform="translate(-0.78 1.78) rotate(-0.44)"></rect></g><g class="cls-52"><path class="cls-53" d="M236.71,101l5.75,0v1.48l-5.74,0Zm11.49-.09,5.74,0v1.48l-5.74,0Zm11.48-.09,5.74,0,0,1.48-5.75,0Zm11.49-.08,5.74,0v1.48l-5.74,0Zm11.48-.09,5.74,0v1.48l-5.74,0Zm11.48-.09,5.75,0V102l-5.74,0Zm11.49-.09,5.74,0v1.48l-5.74,0Zm11.48-.09,5.75,0v1.48l-5.75,0Zm11.49-.09,5.74,0v1.48l-5.74,0Zm11.48-.09,5.74,0,0,1.48-5.75,0Zm11.49-.09,5.74,0v1.48l-5.74,0ZM363,100l5.74,0v1.48l-5.74,0Z"></path></g><g class="cls-54"><rect class="cls-55" x="374.53" y="99.93" width="2.96" height="1.48" transform="translate(-0.77 2.92) rotate(-0.44)"></rect></g><g class="cls-56"><rect class="cls-57" x="51.91" y="70.37" width="1.48" height="2.96" transform="translate(-0.56 0.41) rotate(-0.44)"></rect></g><g class="cls-58"><path class="cls-59" d="M54.36,196.89H52.88l-.05-6.18h1.48Zm-.1-12.36H52.78l0-6.17,1.48,0Zm-.09-12.35H52.69l0-6.18h1.48Zm-.1-12.36H52.59l-.05-6.18H54ZM54,147.46l-1.48,0,0-6.18h1.48Zm-.1-12.35H52.4l0-6.18h1.48Zm-.1-12.36H52.3l0-6.18h1.48Zm-.09-12.35H52.21l-.05-6.18h1.48ZM53.59,98H52.11l0-6.18h1.48ZM53.5,85.68H52L52,79.52l1.48,0Z"></path></g><g class="cls-60"><rect class="cls-61" x="52.94" y="203.07" width="1.48" height="2.96" transform="translate(-1.58 0.42) rotate(-0.44)"></rect></g><g class="cls-62"><rect class="cls-63" x="170.15" y="81.78" width="2.96" height="1.48" transform="translate(-0.63 1.33) rotate(-0.44)"></rect></g><g class="cls-64"><path class="cls-65" d="M164.41,83.32l-5.74,0V81.88l5.74,0Zm-11.48.09-5.75,0V82l5.75,0Zm-11.49.09-5.74,0V82.06l5.74,0ZM130,83.59l-5.74,0,0-1.48,5.75,0Zm-11.49.09-5.74,0V82.24l5.74,0ZM107,83.76l-5.74,0V82.33l5.74,0Zm-11.48.09-5.75.05V82.42l5.74,0ZM84,83.94l-5.74,0V82.51L84,82.46ZM72.54,84l-5.74,0,0-1.48,5.75,0Zm-11.49.09-5.74,0V82.69l5.74,0Zm-11.48.09-5.74,0V82.77l5.74,0Zm-11.49.09-5.74,0V82.86l5.74,0Z"></path></g><g class="cls-66"><rect class="cls-67" x="23.63" y="82.92" width="2.96" height="1.48" transform="translate(-0.65 0.2) rotate(-0.44)"></rect></g><path class="cls-68" d="M362.4,355.45l-37.3.29a2.45,2.45,0,0,1-2.45-2.16l-6.29-51.71,53.94-.42-5.48,51.8A2.46,2.46,0,0,1,362.4,355.45Z"></path><ellipse class="cls-33" cx="343.34" cy="302.27" rx="26.97" ry="3.06" transform="translate(-2.33 2.67) rotate(-0.44)"></ellipse><path class="cls-69" d="M340.11,202.39c-14.7,1.34-9.45,45.43-9.45,45.43,4,38,9,55.09,12.69,56.29s10.61-54,10.51-67.5C353.86,236.61,354.81,201.05,340.11,202.39Z"></path><path class="cls-42" d="M342.69,298h-.07a.61.61,0,0,1-.54-.68c4.52-39.95-1.87-90-1.93-90.55a.61.61,0,0,1,1.21-.15c.07.5,6.48,50.74,1.93,90.84A.62.62,0,0,1,342.69,298Z"></path><path class="cls-37" d="M295.82,181.89c-1.18,6.14,6.19,7.31,7.48,15.88s-2.37,11-1.1,15.95,8.62,6.06,9.95,18.31-3.6,11.06-2.31,18.4,8.63,7.29,9.91,13.41,1.34,14.7,3.85,22,9.94,18.31,13.62,18.28,13.32-21,10.82-27.06-6.18-7.3-6.22-12.21,4.77-17.19,3.48-25.76S333,227,331.67,220.84s2.28-22.08-6.35-29.37S297,175.76,295.82,181.89Z"></path><path class="cls-43" d="M412.37,194.48c4.37,4.3-9.76,6.2-10.91,14.79s-1.14,12.27-6,17.21-12.21,6.22-10.93,13.57,3.79,14.68.14,18.38-12.22,3.78-14.63,9.92-1.12,13.5-6,19.66S352,306.49,345.8,304.09s-2.69-30.62-.27-35.55,4.83-8.61,4.8-12.29-1.3-9.8,1.11-15.95,15.86-8.7,17.06-12.39,2.27-23.31,9.59-28.27S405,187.18,412.37,194.48Z"></path><path class="cls-42" d="M347.69,302a.61.61,0,0,1-.32-.08.62.62,0,0,1-.22-.84c.05-.08,4.9-8.33,5.9-12.49.26-1.07.57-2.69.93-4.57,1.3-6.81,3.27-17.11,6.4-20.29,4.54-4.6,11.74-18.67,16.72-36.63,6.14-22.14,26.95-28.76,27.16-28.83a.6.6,0,0,1,.76.41.61.61,0,0,1-.4.76c-.2.07-20.38,6.51-26.34,28-5,18.17-12.38,32.45-17,37.17-2.86,2.92-4.87,13.4-6.06,19.66-.37,1.9-.68,3.53-.94,4.63-1.05,4.34-5.84,12.48-6,12.82A.61.61,0,0,1,347.69,302Z"></path><path class="cls-42" d="M337.11,299.37a.61.61,0,0,1-.61-.6c0-.16-.23-16.09-4.94-20.72s-7.58-19.17-9.12-46.92c-1.4-25.21-19.63-45.84-19.82-46a.63.63,0,0,1,.05-.87.61.61,0,0,1,.86,0c.19.21,18.71,21.15,20.13,46.8,1.5,27.05,4.28,41.71,8.76,46.11,5.07,5,5.3,20.91,5.3,21.58a.61.61,0,0,1-.6.62Z"></path></svg> 